<?xml version="1.0" standalone="no"?>
<!DOCTYPE svg PUBLIC "-//W3C//DTD SVG 1.1//EN" "http://www.w3.org/Graphics/SVG/1.1/DTD/svg11.dtd" >
<svg xmlns="http://www.w3.org/2000/svg" xmlns:xlink="http://www.w3.org/1999/xlink" version="1.1">
<metadata></metadata>
<defs>
<font id="lehigh_commercialregular" horiz-adv-x="1273" >
<font-face units-per-em="2048" ascent="1621" descent="-427" />
<missing-glyph horiz-adv-x="336" />
<glyph horiz-adv-x="0" />
<glyph horiz-adv-x="682" />
<glyph unicode=" "  horiz-adv-x="336" />
<glyph unicode="&#x09;" horiz-adv-x="336" />
<glyph unicode="&#xa0;" horiz-adv-x="336" />
<glyph unicode="!" horiz-adv-x="370" d="M92 49q0 36 26.5 61t67.5 25q39 0 65.5 -25t26.5 -61q0 -35 -26.5 -59t-65.5 -24q-41 0 -67.5 24t-26.5 59zM123 1280h124l-6 -992h-111z" />
<glyph unicode="&#x22;" horiz-adv-x="628" d="M143 1314h125l-15 -317h-96zM360 1314h125l-14 -317h-97z" />
<glyph unicode="#" horiz-adv-x="1088" d="M36 369v87h213l72 368h-219v87h236l72 369h97l-72 -369h326l72 369h99l-72 -369h193v-87h-210l-72 -368h215v-87h-232l-71 -369h-99l71 369h-326l-71 -369h-98l72 369h-196zM346 456h326l72 368h-326z" />
<glyph unicode="$" horiz-adv-x="1047" d="M118 0v386h97q2 -132 71.5 -217t181.5 -102v551q-72 29 -128 61.5t-102.5 76t-71 100t-24.5 122.5q0 141 96 233.5t230 100.5v139h92v-142q82 -15 143.5 -61t84.5 -110l11 142h75v-346h-97q-4 128 -61.5 200.5t-155.5 85.5v-501q71 -29 121.5 -54.5t101.5 -61t82 -74 t50.5 -91t19.5 -114.5q0 -166 -101.5 -259.5t-273.5 -98.5v-137h-92v144q-95 15 -165.5 70t-99.5 141l-10 -184h-75zM280 986q0 -136 188 -228v459q-82 -17 -135 -81t-53 -150zM560 65q103 12 168.5 77t65.5 170q0 90 -59.5 153t-174.5 115v-515z" />
<glyph unicode="%" horiz-adv-x="1472" d="M70 1000q0 136 84.5 225t214.5 89t214 -89t84 -225q0 -138 -84 -227t-214 -89q-131 0 -215 89t-84 227zM164 0h109l1036 1280h-109zM169 1000q0 -107 58 -177t142 -70q86 0 142.5 69t56.5 178q0 107 -57 176.5t-142 69.5q-84 0 -142 -70t-58 -176zM806 282q0 136 84 225 t214 89t214.5 -89t84.5 -225q0 -138 -84 -227t-215 -89q-130 0 -214 89t-84 227zM905 282q0 -108 57.5 -178t141.5 -70q86 0 143 69.5t57 178.5q0 106 -57.5 175.5t-142.5 69.5q-84 0 -141.5 -69.5t-57.5 -175.5z" />
<glyph unicode="&#x26;" horiz-adv-x="1227" d="M82 321q0 112 80 214t217 166l-46 60q-43 57 -73 128t-30 138q0 128 91.5 207.5t236.5 79.5q137 0 219.5 -74t82.5 -197q0 -190 -307 -355l334 -434q69 123 69 278v52h189v-91h-101q-7 -186 -97 -317l31 -41q15 -17 42 -29t53 -12h70v-94h-126q-101 0 -147 58l-32 43 q-60 -63 -151 -98t-201 -35q-185 0 -294.5 95.5t-109.5 257.5zM218 328q0 -126 76 -198.5t206 -71.5q178 -3 278 119l-341 448q-99 -52 -159 -132.5t-60 -164.5zM375 1027q0 -99 94 -228l29 -38q110 58 176.5 132t66.5 145q0 87 -48 134t-132 45t-135 -53t-51 -137z" />
<glyph unicode="'" horiz-adv-x="411" d="M143 1314h125l-15 -317h-96z" />
<glyph unicode="(" horiz-adv-x="653" d="M108 517q0 289 98 522t257 359l83 -69q-124 -102 -214.5 -324.5t-90.5 -487.5q0 -266 90.5 -489.5t214.5 -322.5l-83 -69q-160 124 -257.5 356t-97.5 525z" />
<glyph unicode=")" horiz-adv-x="653" d="M108 -295q124 99 214.5 322.5t90.5 489.5t-90.5 488.5t-214.5 323.5l83 69q159 -126 257 -359t98 -522q0 -293 -97.5 -525t-257.5 -356z" />
<glyph unicode="*" horiz-adv-x="962" d="M92 992l29 93l36 -10l287 -104l-12 302l1 39h98l1 -39l-11 -302l283 106l37 8l29 -93l-34 -12l-293 -84l189 -239l19 -31l-79 -58l-22 31l-167 251l-171 -254l-22 -28l-80 58l19 29l189 241l-293 82z" />
<glyph unicode="+" horiz-adv-x="1059" d="M101 476v99h379v367h102v-367h377v-99h-377v-367h-102v367h-379z" />
<glyph unicode="," horiz-adv-x="295" d="M9 -207q26 25 41 41t35 52.5t26 77.5q-41 1 -66.5 26t-25.5 59q0 36 25.5 61t64.5 25q41 0 67.5 -28t26.5 -78q0 -75 -43 -143.5t-116 -122.5z" />
<glyph unicode="-" horiz-adv-x="873" d="M101 418v99h670v-99h-670z" />
<glyph unicode="." horiz-adv-x="370" d="M92 49q0 36 26.5 61t67.5 25q39 0 65.5 -25t26.5 -61q0 -35 -26.5 -59t-65.5 -24q-41 0 -67.5 24t-26.5 59z" />
<glyph unicode="/" horiz-adv-x="858" d="M36 -152l665 1517h120l-666 -1517h-119z" />
<glyph unicode="0" horiz-adv-x="1223" d="M106 642q0 194 60.5 346t176 239t268.5 87q152 0 268 -86.5t177.5 -238.5t61.5 -347q0 -197 -61.5 -350t-177 -239.5t-268.5 -86.5t-268 87t-176 239.5t-61 349.5zM244 642q0 -261 101.5 -417.5t265.5 -156.5q165 0 267 156t102 418q0 261 -102 415.5t-267 154.5 q-164 0 -265.5 -154.5t-101.5 -415.5z" />
<glyph unicode="1" horiz-adv-x="791" d="M114 0v92h236v1036q-65 -25 -149 -25q-54 0 -82 10v97q23 -5 52 -5q156 0 204 75h105v-1188h225v-92h-591z" />
<glyph unicode="2" horiz-adv-x="1058" d="M102 0v56q0 65 24 123.5t64.5 105t92.5 89.5t109.5 82t115 77t109.5 79.5t92.5 85t64 98t23.5 114.5q0 146 -76.5 224t-201.5 78t-203.5 -81t-78.5 -235l2 -32h-118q-3 17 -3 32q0 193 111.5 305.5t291.5 112.5q186 0 295 -104t109 -292q0 -89 -37 -167t-97 -135.5 t-132 -109t-145 -98.5t-133.5 -93.5t-100 -103.5t-41.5 -119h604v191h92v-283h-833z" />
<glyph unicode="3" horiz-adv-x="1017" d="M87 389l2 33h126q-2 -26 -2 -43q0 -136 78 -222.5t207 -86.5q122 0 205.5 78.5t83.5 194.5q0 113 -81.5 188t-217.5 75h-65v89h69q130 0 202 69t72 185t-76 189.5t-197 73.5q-119 0 -195 -84t-76 -208l2 -26h-123q-2 17 -2 26q0 167 109 280.5t258 113.5q102 0 188 -31.5 t141.5 -83t86.5 -115.5t31 -130q0 -54 -22.5 -103.5t-60.5 -87t-77 -64t-81 -45.5q43 -21 85 -52.5t81 -73t63 -94t24 -105.5q0 -67 -33 -133t-88.5 -116.5t-136 -82t-169.5 -31.5q-119 0 -215.5 64.5t-146 160.5t-49.5 198z" />
<glyph unicode="4" horiz-adv-x="1047" d="M34 362v94l626 824h118v-824h212v-94h-212v-270h167v-92h-477v92h184v270h-618zM162 456h490v657z" />
<glyph unicode="5" horiz-adv-x="1058" d="M114 384v12h118v-12q-2 -136 75 -226t203 -90q133 0 217 101t84 264q0 150 -79 249.5t-211 99.5q-51 0 -98 -17.5t-77 -41t-53.5 -50t-33.5 -43t-12 -22.5l-93 17l59 655h663v-99h-577l-41 -447q49 61 128.5 98t163.5 37q187 0 291 -119t104 -320q0 -202 -119.5 -333 t-311.5 -131q-181 0 -292.5 121.5t-107.5 296.5z" />
<glyph unicode="6" horiz-adv-x="1095" d="M109 591q0 345 125 534t346 189q145 0 244.5 -78.5t129.5 -209.5h-125q-67 186 -249 186q-154 0 -242.5 -154t-90.5 -454q0 -62 9 -77q24 116 123 192t234 76q160 0 280.5 -127t120.5 -293q0 -179 -117.5 -294t-316.5 -115q-144 0 -251.5 80.5t-163.5 221.5t-56 323z M275 379q0 -120 92.5 -215.5t212.5 -95.5q137 0 221.5 85.5t84.5 223.5q0 130 -89.5 222t-211.5 92q-126 0 -218 -90.5t-92 -221.5z" />
<glyph unicode="7" horiz-adv-x="984" d="M84 976v304h848v-92q-224 -231 -353.5 -554.5t-129.5 -633.5h-142q0 296 149 638.5t363 549.5h-642v-212h-93z" />
<glyph unicode="8" horiz-adv-x="1102" d="M99 343q0 121 71 209.5t197 126.5q-98 37 -150.5 114.5t-52.5 186.5q0 142 105.5 238t281.5 96t282 -96t106 -238q0 -109 -52.5 -186.5t-150.5 -114.5q126 -38 197 -126.5t71 -209.5q0 -166 -121.5 -271.5t-331.5 -105.5t-331 105.5t-121 271.5zM232 343 q0 -121 89 -199.5t230 -78.5q142 0 230.5 78.5t88.5 199.5q0 129 -87 207t-232 78t-232 -78t-87 -207zM283 980q0 -123 70.5 -192t197.5 -69t197.5 69t70.5 192q0 107 -74.5 175.5t-193.5 68.5t-193.5 -68.5t-74.5 -175.5z" />
<glyph unicode="9" horiz-adv-x="1097" d="M82 903q0 180 117 295.5t316 115.5q145 0 253 -80.5t164 -221.5t56 -323q0 -346 -125 -534.5t-348 -188.5q-150 0 -253 77.5t-127 209.5h124q27 -91 93.5 -138t162.5 -47q160 0 247 157t88 473q0 28 3 44t-1 19q-25 -125 -127 -202.5t-242 -77.5q-104 0 -197 59.5 t-148.5 157.5t-55.5 205zM210 901q0 -131 89.5 -222.5t210.5 -91.5q126 0 218.5 91.5t92.5 222.5q0 120 -92.5 215.5t-213.5 95.5q-137 0 -221 -85.5t-84 -225.5z" />
<glyph unicode=":" horiz-adv-x="370" d="M92 49q0 36 26.5 61t67.5 25q39 0 65.5 -25t26.5 -61q0 -35 -26.5 -59t-65.5 -24q-41 0 -67.5 24t-26.5 59zM92 696q0 36 26.5 61t67.5 25q39 0 65.5 -25t26.5 -61t-26 -60.5t-66 -24.5q-41 0 -67.5 24.5t-26.5 60.5z" />
<glyph unicode=";" horiz-adv-x="476" d="M148 -207q28 28 40.5 41.5t33.5 51t27 78.5q-41 2 -66.5 26.5t-25.5 58.5q0 36 26.5 61t65.5 25q41 0 66.5 -28t25.5 -78q0 -75 -42.5 -143.5t-114.5 -122.5zM155 696q0 36 27 61t67 25q39 0 65.5 -25t26.5 -61t-26 -60.5t-66 -24.5t-67 24.5t-27 60.5z" />
<glyph unicode="&#x3c;" horiz-adv-x="1068" d="M108 398v90l860 374v-99l-767 -321l767 -338v-99z" />
<glyph unicode="=" horiz-adv-x="1059" d="M101 292v99h858v-99h-858zM101 662v99h858v-99h-858z" />
<glyph unicode="&#x3e;" horiz-adv-x="1068" d="M101 5v99l764 338l-764 321v99l858 -374v-90z" />
<glyph unicode="?" horiz-adv-x="899" d="M65 928q0 77 23 145.5t68 123t119 86t169 31.5t169.5 -29t118 -78.5t65.5 -108t22 -123.5q0 -70 -18.5 -125t-48.5 -91.5t-66 -69t-72 -66t-66 -72t-48.5 -98.5t-18.5 -136l2 -35h-116q-2 27 -2 49q0 77 17.5 139.5t45 103.5t61 75.5t67 66t61 65.5t45 81.5t17.5 106.5 q0 23 -4.5 50t-20 65.5t-40 68t-70.5 51t-105 21.5t-105 -22t-72 -54t-43 -74t-22.5 -77.5t-5.5 -69.5q0 -7 0.5 -13.5t0.5 -10.5l1 -5h-126q-2 15 -2 29zM340 49q0 36 26.5 61t66.5 25t66.5 -25t26.5 -61q0 -35 -27 -59t-66 -24t-66 24t-27 59z" />
<glyph unicode="@" horiz-adv-x="1766" d="M108 473q0 177 64.5 330.5t174 259t257 166t311.5 60.5q213 0 382 -89.5t264.5 -253.5t95.5 -376q0 -220 -105.5 -350t-280.5 -130q-94 0 -147.5 46t-70.5 111q-46 -67 -138 -111t-188 -44q-95 0 -162 58t-91.5 158.5t0.5 220.5q39 179 167 287.5t286 108.5 q88 0 152.5 -40t82.5 -102l28 113h105l-134 -550q-20 -76 18.5 -129t112.5 -53q120 0 200 110.5t80 295.5q0 143 -50 264t-138.5 203.5t-211 128.5t-264.5 46q-114 0 -221 -34.5t-195.5 -100.5t-155.5 -155.5t-104 -205t-36 -243.5q1 -183 87 -335.5t239 -241.5t340 -89 q90 0 187 20.5t163 58.5l44 -67q-80 -41 -189.5 -65t-211.5 -24q-159 0 -298.5 57t-237.5 156t-154.5 236.5t-56.5 293.5zM588.5 352q12.5 -79 62 -128.5t124.5 -49.5q100 0 182.5 61t110.5 173l53 217q24 96 -27.5 159t-151.5 63q-116 0 -217 -89.5t-131 -228.5 q-18 -98 -5.5 -177z" />
<glyph unicode="A" d="M36 0v92h133l387 1198h161l387 -1198h132v-92h-430v92h157l-99 323h-477l-99 -323h156v-92h-408zM411 495h427l-213 696z" />
<glyph unicode="B" horiz-adv-x="1143" d="M101 0v92h138v1096h-138v92h490q174 0 273 -79t99 -228q0 -129 -70 -205.5t-200 -89.5q348 -31 348 -326q0 -352 -439 -352h-501zM369 92h220q157 0 232 63.5t75 202.5q0 133 -81 201.5t-233 68.5h-213v-536zM369 717h208q122 0 187 59.5t65 177.5q0 111 -66 172.5 t-178 61.5h-216v-471z" />
<glyph unicode="C" horiz-adv-x="1227" d="M108 642q0 186 59 337t176.5 243t274.5 92q268 0 382 -235l12 201h89v-369h-121q-42 139 -127.5 215.5t-209.5 76.5q-123 0 -212 -76t-132 -201t-43 -284q0 -157 47 -284.5t140 -204t216 -76.5q268 0 343 343h128q-32 -213 -153 -333.5t-325 -120.5q-127 0 -231 53 t-172 145.5t-104.5 215t-36.5 262.5z" />
<glyph unicode="D" horiz-adv-x="1252" d="M101 0v92h138v1096h-138v92h501q133 0 237 -48t170.5 -134t101 -202t34.5 -254q0 -140 -34.5 -256.5t-101 -203t-170.5 -134.5t-237 -48h-501zM369 92h218q132 0 226 70.5t140.5 193.5t46.5 286q0 247 -107.5 396.5t-305.5 149.5h-218v-1096z" />
<glyph unicode="E" horiz-adv-x="1082" d="M101 0v92h138v1096h-138v92h862v-358h-81v122q0 85 -18 114.5t-72 29.5h-423v-481h353v-93h-353v-522h423q53 0 71.5 30.5t18.5 114.5v144h81v-381h-862z" />
<glyph unicode="F" horiz-adv-x="1042" d="M101 0v92h141v1096h-141v92h843v-357h-80v125q0 82 -18.5 111t-72.5 29h-401v-507h355v-94h-355v-495h176v-92h-447z" />
<glyph unicode="G" horiz-adv-x="1293" d="M108 642q0 113 22 213.5t66 184.5t107 145t149 95t188 34q266 0 396 -241l14 207h88v-360h-129q-90 283 -347 283q-130 0 -224 -76.5t-139.5 -202t-45.5 -282.5q0 -158 46 -284t141.5 -203.5t226.5 -77.5q156 0 261.5 107t110.5 299h-252v78h464v-78h-90v-483h-86 l-12 246q-56 -131 -166 -205.5t-255 -74.5q-129 0 -232 52t-168 144t-99.5 214t-34.5 266z" />
<glyph unicode="H" horiz-adv-x="1396" d="M101 0v92h138v1096h-138v92h396v-92h-128v-483h658v483h-128v92h396v-92h-138v-1096h138v-92h-396v92h128v522h-658v-522h128v-92h-396z" />
<glyph unicode="I" horiz-adv-x="612" d="M101 0v92h141v1096h-141v92h411v-92h-140v-1096h140v-92h-411z" />
<glyph unicode="J" horiz-adv-x="962" d="M36 398v49h124v-77q0 -302 222 -302q115 0 176.5 78t61.5 224v818h-147v92h418v-92h-142v-794q0 -212 -88 -320t-279 -108q-189 0 -267.5 104t-78.5 328z" />
<glyph unicode="K" horiz-adv-x="1269" d="M101 0v92h141v1096h-141v92h397v-92h-126v-604l558 604h-145v92h403v-92h-120l-372 -394l376 -702h135v-92h-408v92h126l-319 606l-225 -239l-9 15v-382h125v-92h-396z" />
<glyph unicode="L" horiz-adv-x="984" d="M101 0v92h138v1096h-138v92h430v-92h-162v-1096h343q67 0 88 52t21 214v28h80v-386h-800z" />
<glyph unicode="M" horiz-adv-x="1713" d="M94 0v92h140v1096h-140v92h312l452 -1092l453 1092h302v-92h-142v-1096h142v-92h-398v92h126v1040l-474 -1135h-58l-469 1123v-1028h128v-92h-374z" />
<glyph unicode="N" horiz-adv-x="1332" d="M94 0v92h140v1096h-140v92h252l659 -1053v961h-133v92h374v-92h-137v-1188h-100l-676 1073v-981h136v-92h-375z" />
<glyph unicode="O" horiz-adv-x="1324" d="M108 642q0 138 36 259t103.5 213.5t174.5 146t240 53.5q132 0 238.5 -53.5t174.5 -146t104 -213.5t36 -259q0 -140 -36 -262t-104 -214.5t-174.5 -146t-238.5 -53.5q-133 0 -240 53.5t-174.5 146t-103.5 214.5t-36 262zM253 642q0 -159 46 -285.5t140 -203t223 -76.5 t222.5 76.5t139.5 203t46 285.5t-46 284.5t-139.5 201t-222.5 75.5t-223 -75.5t-140 -201t-46 -284.5z" />
<glyph unicode="P" horiz-adv-x="1083" d="M101 0v92h141v1096h-141v92h471q96 0 174 -22.5t136.5 -68t90.5 -120t32 -171.5q0 -195 -120 -295t-318 -100h-195v-411h172v-92h-443zM372 596h181q140 0 224.5 74.5t84.5 223.5q0 148 -84.5 221t-224.5 73h-181v-592z" />
<glyph unicode="Q" horiz-adv-x="1302" d="M108 642q0 139 35.5 259.5t103 213t173.5 146t239 53.5t239.5 -53.5t174 -146t103.5 -213.5t36 -259q0 -213 -80.5 -379.5t-230.5 -242.5q5 -71 44 -108.5t106 -37.5q15 0 30.5 3t24 6t8.5 4v-97q-34 -17 -95 -17q-91 0 -150.5 54t-69.5 156q-61 -17 -140 -17 q-133 0 -239 53.5t-173.5 146t-103 214.5t-35.5 262zM253 642q0 -162 45.5 -288t138.5 -201.5t222 -75.5t223 75.5t139.5 201.5t45.5 288t-45.5 287t-139.5 199.5t-223 74.5t-222 -74.5t-138.5 -199.5t-45.5 -287z" />
<glyph unicode="R" horiz-adv-x="1208" d="M101 0v92h141v1096h-141v92h548q208 0 306 -84t98 -251q0 -130 -81 -219.5t-216 -109.5q116 -16 176 -87t60 -181v-121q0 -74 23.5 -104.5t81.5 -30.5h33v-92h-111q-86 0 -124 44.5t-38 150.5v143q0 107 -61 168.5t-168 61.5h-256v-476h130v-92h-401zM372 662h249 q126 0 207.5 74.5t81.5 191.5q0 133 -70 196.5t-214 63.5h-254v-526z" />
<glyph unicode="S" horiz-adv-x="1037" d="M118 0v386h97q9 -153 100.5 -238t218.5 -85q115 0 187.5 64t72.5 173q0 105 -76 175t-237 138q-64 27 -108 49.5t-92.5 57.5t-77 72.5t-47.5 92t-19 119.5q0 146 98.5 228t244.5 82q110 0 193.5 -43.5t116.5 -104.5l9 114h75v-346h-96q-2 133 -83.5 210.5t-189.5 77.5 q-102 0 -166 -55.5t-64 -154.5q0 -100 66 -166.5t202 -120.5q74 -30 127.5 -56.5t106.5 -63.5t85.5 -77.5t52.5 -96t20 -120.5q0 -160 -104 -252.5t-273 -92.5q-126 0 -222 53t-135 141l-8 -160h-75z" />
<glyph unicode="T" horiz-adv-x="1140" d="M84 923v357h974v-357h-78v121q0 90 -18 123t-63 33h-262v-1108h162v-92h-454v92h160v1108h-264q-45 0 -63 -33t-18 -123v-121h-76z" />
<glyph unicode="U" horiz-adv-x="1247" d="M77 1188v92h401v-92h-132v-809q0 -137 74.5 -224t210.5 -87q140 0 212.5 86t72.5 225v809h-122v92h382v-92h-142v-795q0 -199 -101.5 -313t-301.5 -114q-212 0 -313 113t-101 314v795h-140z" />
<glyph unicode="V" horiz-adv-x="1240" d="M36 1188v92h430v-92h-152l316 -1070l314 1070h-157v92h418v-92h-142l-368 -1198h-149l-370 1198h-140z" />
<glyph unicode="W" horiz-adv-x="1921" d="M36 1188v92h430v-92h-152l290 -1063l290 1063h-153v92h457v-92h-155l293 -1067l289 1067h-152v92h415v-92h-144l-343 -1198h-143l-297 1072l-299 -1072h-140l-346 1198h-140z" />
<glyph unicode="X" horiz-adv-x="1187" d="M32 0v92h125l341 574l-329 522h-131v92h406v-92h-127l296 -475l281 475h-129v92h384v-92h-128l-337 -553l338 -543h130v-92h-404v92h126l-302 483l-287 -483h131v-92h-384z" />
<glyph unicode="Y" horiz-adv-x="1204" d="M36 1188v92h433v-92h-155l300 -567l296 567h-149v92h410v-92h-137l-365 -676v-420h148v-92h-433v92h150v423l-360 673h-138z" />
<glyph unicode="Z" horiz-adv-x="1022" d="M114 0v79l663 1114h-465q-53 0 -72.5 -31.5t-19.5 -113.5v-123h-78v355h785v-75l-662 -1118h513q54 0 75 33t21 117v145h78v-382h-838z" />
<glyph unicode="[" horiz-adv-x="505" d="M101 -324v1689h297v-92h-178v-1505h178v-92h-297z" />
<glyph unicode="\" horiz-adv-x="858" d="M36 1365h119l666 -1517h-120z" />
<glyph unicode="]" horiz-adv-x="505" d="M108 -232h177v1505h-177v92h296v-1689h-296v92z" />
<glyph unicode="^" horiz-adv-x="583" d="M0 903l249 469h86l249 -469h-84l-208 382l-207 -382h-85z" />
<glyph unicode="_" horiz-adv-x="931" d="M36 -106h860v-99h-860v99z" />
<glyph unicode="`" horiz-adv-x="339" d="M0 1280h114l226 -300h-91z" />
<glyph unicode="a" horiz-adv-x="989" d="M84 222q0 130 100 200t294 70h206v71q0 237 -218 237q-105 0 -165 -52t-62 -137v-15h-121v18q0 127 93.5 204.5t261.5 77.5q172 0 253 -82.5t81 -245.5v-479h116v-92h-239v109q-46 -57 -125.5 -98.5t-183.5 -41.5q-135 0 -213 66t-78 190zM212 234q0 -83 56.5 -130.5 t156.5 -47.5q55 0 102 16t77.5 42t49 50.5t30.5 50.5v207h-182q-290 0 -290 -188z" />
<glyph unicode="b" horiz-adv-x="1020" d="M20 1196v84h239v-527q41 63 119.5 104t169.5 41q165 0 280.5 -132t115.5 -334q0 -200 -116 -333t-280 -133q-96 0 -177.5 45t-119.5 114l-15 -125h-99v1196h-117zM259 312q0 -102 74.5 -173.5t181.5 -71.5q124 0 210.5 107t86.5 258q0 152 -86 257.5t-211 105.5 q-107 0 -181.5 -71.5t-74.5 -172.5v-239z" />
<glyph unicode="c" horiz-adv-x="965" d="M77 432q0 201 117.5 333.5t305.5 132.5q160 0 266 -92.5t130 -244.5h-128q-26 108 -99.5 174.5t-170.5 66.5q-124 0 -207 -107t-83 -263t83.5 -264t206.5 -108q99 0 173 68t97 179h130q-24 -154 -130.5 -247.5t-267.5 -93.5q-188 0 -305.5 132.5t-117.5 333.5z" />
<glyph unicode="d" horiz-adv-x="1066" d="M77 432q0 202 115.5 334t280.5 132q91 0 169 -40.5t119 -104.5v443h-124v84h247v-1191h116v-89h-239v111q-41 -64 -119 -104.5t-169 -40.5q-164 0 -280 133t-116 333zM208 432q0 -151 86.5 -258t210.5 -107q107 0 181.5 71.5t74.5 173.5v239q0 101 -74.5 172.5 t-181.5 71.5q-125 0 -211 -105.5t-86 -257.5z" />
<glyph unicode="e" horiz-adv-x="991" d="M77 432q0 201 120.5 333.5t309.5 132.5q188 0 302 -129t114 -330v-40h-713q11 -149 92.5 -244t200.5 -95q99 0 176 62.5t104 164.5h130q-33 -147 -142 -234t-264 -87q-189 0 -309.5 132.5t-120.5 333.5zM210 481h585q-11 142 -94 235t-198 93q-119 0 -200.5 -92 t-92.5 -236z" />
<glyph unicode="f" horiz-adv-x="552" d="M67 0v89h114v686h-114v89h114v268q0 85 51.5 126t158.5 41q57 0 95 -16v-83q-28 7 -54 7q-67 0 -97.5 -24.5t-30.5 -78.5v-240h160v-89h-160v-686h159v-89h-396z" />
<glyph unicode="g" horiz-adv-x="1042" d="M77 -137q0 74 46 127.5t111 79.5q-94 39 -94 138q0 54 41 99.5t97 61.5q-124 80 -124 235q0 131 96.5 212.5t254.5 81.5q115 0 200 -45q0 109 52 161.5t139 52.5q56 0 77 -16v-78q-23 7 -55 7q-148 0 -148 -154v-19q87 -81 87 -203q0 -134 -97 -213.5t-255 -79.5 q-92 0 -160 25q-41 -13 -68.5 -37t-27.5 -58q0 -51 50 -72t164 -21h93q201 0 295 -50t94 -173q0 -134 -120.5 -212t-351.5 -78q-396 0 -396 228zM179 -126q0 -84 78 -127.5t221 -43.5h43q135 0 228.5 58t93.5 145q0 75 -66.5 106.5t-218.5 31.5h-138q-49 0 -97 5 q-59 -25 -101.5 -71t-42.5 -104zM275 604q0 -102 61 -156.5t169 -54.5t169.5 54.5t61.5 156.5q0 99 -62 156t-169 57t-168.5 -57t-61.5 -156z" />
<glyph unicode="h" horiz-adv-x="1054" d="M67 0v89h114v1102h-114v89h237v-538q41 73 118.5 114.5t169.5 41.5q51 0 98.5 -17t90 -50.5t68 -93t25.5 -136.5v-512h114v-89h-341v89h104v474q0 119 -54.5 181t-146.5 62q-106 0 -176 -68.5t-70 -174.5v-474h106v-89h-343z" />
<glyph unicode="i" horiz-adv-x="486" d="M67 0v89h114v686h-114v89h237v-775h116v-89h-353zM126 1159q0 37 26 60t70 23q45 0 71 -23t26 -60q0 -36 -26 -59t-71 -23q-44 0 -70 23.5t-26 58.5z" />
<glyph unicode="j" horiz-adv-x="377" d="M39 -236q21 -3 48 -3q47 0 63 19.5t16 60.5v934h-125v89h247v-1052q0 -77 -37 -112.5t-120 -35.5q-57 0 -92 8v92zM49 1147q0 37 27 60.5t71 23.5t69.5 -23.5t25.5 -60.5q0 -36 -25.5 -59t-69.5 -23t-71 23.5t-27 58.5z" />
<glyph unicode="k" horiz-adv-x="1053" d="M67 0v89h114v1102h-114v89h237v-850l423 345h-107v89h348v-89h-108l-285 -227l314 -459h108v-89h-350v89h106l-267 387l-182 -143v-244h106v-89h-343z" />
<glyph unicode="l" horiz-adv-x="486" d="M67 0v89h114v1102h-114v89h237v-1191h116v-89h-353z" />
<glyph unicode="m" horiz-adv-x="1617" d="M67 0v89h114v686h-114v89h237v-122q41 73 119 114.5t169 41.5q97 0 166.5 -49.5t98.5 -136.5q36 84 119.5 135t182.5 51q125 0 202.5 -82t77.5 -215v-512h112v-89h-341v89h106v474q0 114 -52.5 178.5t-147.5 64.5q-106 0 -174 -71t-68 -177v-469h106v-89h-333v89h104v474 q0 115 -53 179t-148 64q-106 0 -176 -69t-70 -174v-474h106v-89h-343z" />
<glyph unicode="n" horiz-adv-x="1054" d="M67 0v89h114v686h-114v89h237v-122q41 73 119 114.5t169 41.5q127 0 204.5 -82t77.5 -215v-512h114v-89h-341v89h104v474q0 115 -53 179t-148 64q-106 0 -176 -69t-70 -174v-474h106v-89h-343z" />
<glyph unicode="o" horiz-adv-x="1006" d="M77 432q0 203 120.5 334.5t305.5 131.5q186 0 306.5 -131.5t120.5 -334.5t-120.5 -334.5t-306.5 -131.5q-185 0 -305.5 131.5t-120.5 334.5zM208 432q0 -160 84.5 -266t210.5 -106q127 0 212 105t85 267t-84.5 266t-212.5 104q-126 0 -210.5 -104.5t-84.5 -265.5z" />
<glyph unicode="p" horiz-adv-x="1024" d="M24 -241h116v1016h-116v89h239v-111q41 64 119 104.5t169 40.5q166 0 280 -130t114 -331t-115 -332t-279 -131q-91 0 -169 40.5t-119 104.5v-360h119v-83h-358v83zM263 317q0 -103 74.5 -174t181.5 -71q125 0 211 105.5t86 259.5t-86 258.5t-211 104.5 q-107 0 -181.5 -71.5t-74.5 -172.5v-239z" />
<glyph unicode="q" horiz-adv-x="1024" d="M77 437q0 201 115 331t281 130q98 0 180.5 -47t119.5 -117l22 130h89v-1105h116v-83h-358v83h119v360q-41 -64 -119 -104.5t-169 -40.5q-165 0 -280.5 131t-115.5 332zM208 437q0 -154 86 -259.5t211 -105.5q107 0 181.5 71t74.5 174v239q0 101 -74.5 172.5t-181.5 71.5 q-125 0 -211 -104.5t-86 -258.5z" />
<glyph unicode="r" horiz-adv-x="653" d="M67 0v89h114v686h-114v89h237v-116q34 66 99.5 108t140.5 42q35 0 62 -9v-104q-47 10 -68 10q-110 0 -172 -84.5t-62 -232.5v-389h148v-89h-385z" />
<glyph unicode="s" horiz-adv-x="805" d="M85 0v254h86q7 -93 74 -151.5t165 -58.5q89 0 138 41.5t49 117.5q0 44 -21.5 78t-56.5 55t-80 41t-92 35t-92 38t-80 49.5t-56.5 70t-21.5 99.5q0 109 74.5 168t186.5 59q82 0 147 -31t96 -82l5 79h73v-236h-87q-7 89 -66.5 144.5t-141.5 55.5q-74 0 -120.5 -38.5 t-46.5 -104.5q0 -46 28 -79.5t73.5 -54.5t100 -40t109 -42t100 -52.5t73.5 -79.5t28 -117q0 -122 -78 -185.5t-206 -63.5q-101 0 -172.5 33.5t-106.5 93.5l-7 -96h-74z" />
<glyph unicode="t" horiz-adv-x="558" d="M20 775v89h70q50 0 67.5 27.5t23.5 100.5v126h78v-254h215v-89h-215v-591q0 -104 147 -104q47 0 72 5v-85q-40 -20 -123 -20q-116 0 -167 48t-51 138v609h-117z" />
<glyph unicode="u" horiz-adv-x="1003" d="M20 775v89h236v-564q0 -114 53.5 -179t149.5 -65q106 0 175 69.5t69 174.5v475h-111v89h234v-775h116v-89h-239v108q-44 -66 -122.5 -104t-164.5 -38q-130 0 -206.5 83.5t-76.5 213.5v512h-113z" />
<glyph unicode="v" horiz-adv-x="943" d="M14 775v89h339v-89h-104l234 -679l230 679h-112v89h329v-89h-111l-280 -782h-135l-279 782h-111z" />
<glyph unicode="w" horiz-adv-x="1481" d="M14 775v89h343v-89h-110l214 -679l232 768h111l239 -767l208 678h-114v89h331v-89h-111l-261 -782h-125l-230 734l-227 -734h-128l-263 782h-109z" />
<glyph unicode="x" horiz-adv-x="942" d="M17 0v89h99l261 384l-225 302h-113v89h350v-89h-95l172 -236l179 236h-54v89h305v-89h-108l-250 -321l266 -365h112v-89h-349v89h95l-211 298l-195 -298h82v-89h-321z" />
<glyph unicode="y" horiz-adv-x="952" d="M20 775v89h347v-89h-109l234 -661l237 661h-115v89h325v-89h-110l-341 -930q-36 -98 -92 -148t-142 -50q-33 0 -83 10l5 92q45 -5 73 -5q56 0 89 23.5t51 73.5l46 130l-302 804h-113z" />
<glyph unicode="z" horiz-adv-x="837" d="M70 0v60l522 732h-358q-43 0 -58.5 -20.5t-15.5 -75.5v-59h-70v227h646v-58l-521 -736h396q43 0 60 22.5t17 78.5v75h70v-246h-688z" />
<glyph unicode="{" horiz-adv-x="698" d="M108 492v92h59q62 0 98.5 43t36.5 121v476q0 100 63 149.5t176 49.5q15 0 21.5 -0.5t9 -1t8.5 -2.5t11 -4v-92q-14 3 -48 3q-72 0 -97.5 -32t-25.5 -104v-449q0 -84 -46 -141t-128 -62q82 -5 128 -62t46 -141v-432q0 -72 25.5 -104.5t97.5 -32.5q25 0 48 5v-94 q-7 -2 -13 -4.5t-13 -3t-24 -0.5q-114 0 -176.5 50t-62.5 151v458q0 78 -36.5 121t-98.5 43h-59z" />
<glyph unicode="|" horiz-adv-x="320" d="M101 -393v1758h119v-1758h-119z" />
<glyph unicode="}" horiz-adv-x="698" d="M108 -229q14 -5 47 -5q72 0 97.5 32.5t25.5 104.5v449q0 84 46 141t128 62q-82 7 -128 63.5t-46 139.5v432q0 72 -25.5 104t-97.5 32q-26 0 -47 -3v92q7 1 11.5 3t7 3t9.5 1.5t21 0.5q114 0 176.5 -50t62.5 -151v-457q0 -78 36.5 -121t98.5 -43h60v-91h-60 q-62 0 -98.5 -43.5t-36.5 -120.5v-477q0 -101 -63 -150.5t-176 -49.5q-15 0 -21.5 0.5t-8.5 1t-7.5 2.5t-11.5 4v94z" />
<glyph unicode="~" horiz-adv-x="674" d="M0 546q0 74 49 128.5t127 54.5q70 0 175 -38.5t147 -38.5q45 0 74.5 27t29.5 58h72q0 -74 -48.5 -126.5t-120.5 -52.5q-70 0 -177 38.5t-145 38.5q-52 0 -81.5 -27.5t-29.5 -61.5h-72z" />
<glyph unicode="&#xa1;" horiz-adv-x="370" d="M92 906q0 35 26.5 59.5t67.5 24.5q39 0 65.5 -24.5t26.5 -59.5q0 -36 -26 -60.5t-66 -24.5q-41 0 -67.5 24.5t-26.5 60.5zM123 -324l7 991h111l6 -991h-124z" />
<glyph unicode="&#xa2;" horiz-adv-x="1024" d="M108 432q0 187 103 316.5t272 147.5v138h92v-138q143 -13 236.5 -103.5t115.5 -231.5h-128q-23 99 -83 165t-141 81v-752q83 15 143.5 83.5t80.5 168.5h129q-22 -144 -115.5 -235t-237.5 -104v-139h-92v139q-169 18 -272 147.5t-103 316.5zM239 432q0 -143 69 -250 t175 -127v752q-106 -20 -175 -126t-69 -249z" />
<glyph unicode="&#xa3;" horiz-adv-x="1063" d="M36 0v96q134 0 202.5 65.5t68.5 191.5q0 65 -19 130h-201v70h179q-12 32 -38.5 96t-42.5 104.5t-29.5 103t-13.5 121.5q0 99 50 177t129.5 118.5t171.5 40.5q98 0 179.5 -40t115.5 -107l9 113h73v-346h-95q-2 140 -71.5 214t-186.5 74q-100 0 -168.5 -68.5t-68.5 -173.5 q0 -75 18 -144t52.5 -155.5t47.5 -127.5h332v-70h-314q14 -64 14 -133q0 -132 -75 -215q51 -3 130 -31.5t135 -28.5q103 0 158 56.5t55 160.5q0 17 -2 36h116q4 -14 4 -36q0 -152 -86 -239t-244 -87q-68 0 -161 30.5t-148 30.5q-60 0 -125.5 -13.5t-150.5 -13.5z" />
<glyph unicode="&#xa4;" horiz-adv-x="1054" d="M89 432q0 107 38 198t107 155l-106 152h96l73 -104q106 65 230 65q123 0 226 -62l68 101h95l-102 -147q72 -64 112 -156.5t40 -201.5t-40 -202.5t-112 -157.5l101 -147h-96l-68 101q-103 -60 -224 -60q-124 0 -230 65l-72 -106h-95l106 152q-69 65 -108 156t-39 199z M213 432q0 -163 93 -272t221 -109q129 0 221.5 108.5t92.5 272.5q0 163 -92.5 271t-221.5 108q-128 0 -221 -108t-93 -271z" />
<glyph unicode="&#xa5;" horiz-adv-x="1206" d="M36 1188v92h433v-92h-155l304 -555l302 555h-159v92h410v-92h-137l-356 -637h283v-70h-292v-153h292v-70h-292v-166h148v-92h-433v92h150v166h-292v70h292v153h-292v70h282l-350 637h-138z" />
<glyph unicode="&#xa6;" horiz-adv-x="392" d="M137 391h119v-784h-119v784zM137 584v781h119v-781h-119z" />
<glyph unicode="&#xa7;" horiz-adv-x="1071" d="M118 22h95q4 -131 84.5 -209t204.5 -78q114 0 188.5 58.5t74.5 163.5q0 62 -34.5 109.5t-89.5 79t-121 59t-132.5 57.5t-121.5 66.5t-89.5 94.5t-34.5 132q0 76 39 133.5t106 94.5q-127 90 -127 227q0 133 100.5 217t236.5 84q95 0 173 -32t113 -88l7 89h75v-312h-97 q-2 125 -68.5 191t-177.5 66q-94 0 -159.5 -59.5t-65.5 -148.5q0 -57 34.5 -101t89.5 -74t122 -57.5t134 -59t122 -69.5t89.5 -97.5t34.5 -135.5q0 -158 -129 -234q111 -88 111 -221q0 -152 -103 -236.5t-275 -84.5q-106 0 -195 38t-132 112l-7 -120h-75v345zM263 568 q0 -50 27.5 -90t79 -71t104.5 -54t125 -54.5t118 -57.5q85 60 85 163q0 46 -20.5 84.5t-51 65t-78.5 53.5t-91 44.5t-101.5 42.5t-97.5 45q-46 -28 -72.5 -72.5t-26.5 -98.5z" />
<glyph unicode="&#xa8;" horiz-adv-x="450" d="M0 1133q0 31 23.5 53t56.5 22t56 -22t23 -53q0 -30 -23 -51.5t-56 -21.5t-56.5 22t-23.5 51zM292 1133q0 31 23 53t57 22q33 0 56 -22t23 -53q0 -30 -23 -51.5t-56 -21.5q-34 0 -57 21.5t-23 51.5z" />
<glyph unicode="&#xa9;" horiz-adv-x="1530" d="M108 642q0 188 85.5 342t236.5 242t335 88t335 -88t236.5 -242t85.5 -342q0 -143 -50.5 -268.5t-137.5 -215t-209 -141t-260 -51.5t-260 51.5t-209 141t-137.5 215t-50.5 268.5zM179 642q0 -126 46 -239.5t124 -195t186.5 -129t229.5 -47.5q162 0 296.5 80.5t212.5 221 t78 309.5t-78 308.5t-212.5 219t-296.5 79.5q-121 0 -229.5 -47t-186.5 -127.5t-124 -193.5t-46 -239zM466 642q0 151 77 252t210 101q141 0 213 -109l7 90h56v-199h-78q-22 73 -68.5 114t-112.5 41q-98 0 -153.5 -81.5t-55.5 -208.5q0 -129 56 -212.5t154 -83.5 q74 0 120 49t65 134h83q-17 -115 -86 -179.5t-187 -64.5q-142 0 -221 101t-79 256z" />
<glyph unicode="&#xaa;" horiz-adv-x="512" d="M32 992q0 62 52.5 95.5t140.5 33.5h123v26q0 113 -106 113q-50 0 -82 -25t-34 -64v-7h-75v8q0 64 52.5 103t142.5 39q95 0 138 -43.5t43 -127.5v-208h56v-51h-135v51q-21 -28 -62 -47t-91 -19q-77 0 -120 30.5t-43 92.5zM113 1000q0 -80 114 -80q50 0 85.5 26t35.5 61v77 h-109q-61 0 -93.5 -22t-32.5 -62z" />
<glyph unicode="&#xab;" horiz-adv-x="803" d="M51 432l261 362h121l-261 -362l261 -362h-121zM370 432l261 362h122l-261 -362l261 -362h-122z" />
<glyph unicode="&#xac;" horiz-adv-x="1295" d="M215 476v99h860v-387h-104v288h-756z" />
<glyph unicode="&#xad;" horiz-adv-x="873" d="M101 418v99h670v-99h-670z" />
<glyph unicode="&#xae;" horiz-adv-x="1498" d="M92 642q0 188 85.5 342t236.5 242t335 88t335 -88t236.5 -242t85.5 -342q0 -143 -50.5 -268.5t-137.5 -215t-209 -141t-260 -51.5t-260 51.5t-209 141t-137.5 215t-50.5 268.5zM164 642q0 -169 77.5 -309.5t211.5 -221t296 -80.5t296.5 80.5t212.5 221t78 309.5 t-78 308.5t-212.5 219t-296.5 79.5t-296 -79.5t-211.5 -219t-77.5 -308.5zM464 304v56h79v560h-79v56h301q119 0 174.5 -43.5t55.5 -130.5q0 -68 -45 -114.5t-121 -56.5q65 -9 98.5 -46t33.5 -92v-66q0 -36 13 -51.5t45 -15.5h17v-56h-72q-49 0 -70.5 23t-21.5 79v84 q0 54 -31.5 84t-89.5 30h-123v-244h72v-56h-236zM628 655h118q68 0 111.5 37.5t43.5 97.5q0 130 -152 130h-121v-265z" />
<glyph unicode="&#xaf;" horiz-adv-x="587" d="M0 1089v89h587v-89h-587z" />
<glyph unicode="&#xb0;" horiz-adv-x="694" d="M84 1058q0 110 71 183t178 73t178 -73t71 -183q0 -111 -71 -183.5t-178 -72.5t-178 72.5t-71 183.5zM157 1058q0 -86 51 -143.5t125 -57.5t125 57t51 144q0 86 -51 143t-125 57t-125 -57t-51 -143z" />
<glyph unicode="&#xb1;" horiz-adv-x="1766" d="M454 92v99h379v328h-379v99h379v357h102v-357h377v-99h-377v-328h377v-99h-858z" />
<glyph unicode="&#xb2;" horiz-adv-x="587" d="M49 836v36q0 44 22 82.5t57 67.5t77 55.5t84 52.5t77 53t56.5 62t21.5 74q0 74 -41.5 113t-108.5 39q-69 0 -111.5 -41t-42.5 -121l2 -15h-82q-2 8 -2 15q0 105 65 167t172 62q109 0 173 -56.5t64 -157.5q0 -53 -28 -99.5t-70.5 -78.5t-92.5 -64t-93.5 -58t-73.5 -60 t-32 -70h334v99h62v-157h-489z" />
<glyph unicode="&#xb3;" horiz-adv-x="578" d="M41 1041l2 24h87q-2 -15 -2 -24q0 -70 42 -113.5t112 -43.5q68 0 109 39t41 106q0 61 -39.5 95.5t-114.5 34.5h-39v48h41q71 0 109.5 33.5t38.5 94.5q0 65 -40 101.5t-108 36.5q-66 0 -106.5 -42.5t-40.5 -107.5v-14h-84q-1 9 -1 14q0 94 65.5 154.5t168.5 60.5 q110 0 173.5 -52.5t63.5 -138.5q0 -62 -38.5 -104.5t-93.5 -56.5q58 -14 98.5 -58.5t40.5 -108.5q0 -92 -66.5 -147t-177.5 -55q-109 0 -175 62.5t-66 161.5z" />
<glyph unicode="&#xb4;" horiz-adv-x="339" d="M0 980l225 300h115l-250 -300h-90z" />
<glyph unicode="&#xb6;" horiz-adv-x="1169" d="M108 874q0 175 115 290.5t289 115.5h550v-89h-125v-1430h-102v1430h-221v-1430h-102v702q-174 0 -289 116.5t-115 294.5z" />
<glyph unicode="&#xb7;" horiz-adv-x="387" d="M101 640q0 36 26 60t66 24q41 0 67.5 -24t26.5 -60t-26.5 -60.5t-67.5 -24.5q-40 0 -66 24.5t-26 60.5z" />
<glyph unicode="&#xb8;" horiz-adv-x="365" d="M0 -207l73 204h60l-53 -140q53 35 120 35q28 0 55 -6.5t52.5 -21t41.5 -42.5t16 -66q0 -77 -60 -114.5t-162 -39.5q-31 0 -64 8.5t-45 17.5v49q52 -13 91 -13q73 0 109.5 21.5t36.5 73.5q0 36 -25 57.5t-70 21.5q-36 0 -65.5 -11t-40.5 -23l-12 -11h-58z" />
<glyph unicode="&#xb9;" horiz-adv-x="413" d="M36 836v58h133v531q-32 -12 -80 -12q-27 0 -50 5v62q14 -4 28 -4q95 0 119 43h72v-625h126v-58h-348z" />
<glyph unicode="&#xba;" horiz-adv-x="513" d="M36 1092q0 96 62.5 159t159.5 63t158.5 -62.5t61.5 -159.5q0 -98 -61.5 -160.5t-158.5 -62.5t-159.5 62.5t-62.5 160.5zM119 1092q0 -75 39.5 -121t99.5 -46q61 0 99.5 46t38.5 121q0 74 -39 121t-99 47t-99.5 -47t-39.5 -121z" />
<glyph unicode="&#xbb;" horiz-adv-x="803" d="M51 70l261 362l-261 362h121l261 -362l-261 -362h-121zM370 70l261 362l-261 362h122l261 -362l-261 -362h-122z" />
<glyph unicode="&#xbc;" horiz-adv-x="1414" d="M68 597v58h133v531q-32 -12 -80 -12q-26 0 -51 5v62q18 -4 29 -4q94 0 118 43h73v-625h125v-58h-347zM229 0l831 1280h94l-831 -1280h-94zM806 198v58l344 428h81v-428h116v-58h-116v-133h90v-63h-280v63h101v133h-336zM886 256h256v324z" />
<glyph unicode="&#xbd;" horiz-adv-x="1501" d="M68 597v58h133v531q-32 -12 -80 -12q-26 0 -51 5v62q18 -4 29 -4q94 0 118 43h73v-625h125v-58h-347zM229 0l831 1280h94l-831 -1280h-94zM945 0v36q0 51 29.5 95t73 74t95 62.5t95 61t73 69t29.5 85.5q0 74 -41.5 113t-108.5 39q-69 0 -111.5 -41t-42.5 -121l2 -16h-82 q-2 9 -2 16q0 104 65 166t172 62q109 0 173 -56t64 -157q0 -53 -28 -99.5t-70.5 -78.5t-92.5 -64t-93.5 -58t-73.5 -60t-32 -70h334v99h62v-157h-489z" />
<glyph unicode="&#xbe;" horiz-adv-x="1536" d="M68 806v20h86l1 -20q0 -70 40 -113t107 -43q66 0 104.5 38t38.5 104q0 59 -37 91t-109 32h-41v58h42q69 0 105.5 31t36.5 90q0 63 -38 99t-105 36q-62 0 -100.5 -42.5t-38.5 -106.5l-1 -13h-82q-2 8 -2 13q0 97 62 158t165 61q108 0 170 -52.5t62 -138.5 q0 -62 -37.5 -104.5t-90.5 -58.5q57 -12 96 -55t39 -107q0 -94 -65 -149t-172 -55q-106 0 -171 64t-65 163zM350 0l831 1280h94l-831 -1280h-94zM927 198v58l344 428h81v-428h116v-58h-116v-133h90v-63h-280v63h103v133h-338zM1007 256h258v328z" />
<glyph unicode="&#xbf;" horiz-adv-x="899" d="M65 -10q0 70 18.5 125.5t48.5 92t66 68.5t72 65.5t66 72.5t48.5 99t18.5 136l-2 34h118q2 -28 2 -50q0 -77 -17.5 -139.5t-45 -103.5t-61 -75.5t-67 -66t-61 -65.5t-45 -81.5t-17.5 -106.5q0 -23 4 -50t19.5 -65.5t39.5 -68t70 -51t105 -21.5t105 22t72.5 54t43 74.5 t22 78t5.5 70.5q0 9 -1 19l-1 10h126q2 -15 2 -29q0 -78 -23 -146.5t-67.5 -123.5t-119 -86.5t-169.5 -31.5t-169.5 29.5t-118 79t-65.5 108.5t-22 123zM358 915q0 36 27 59.5t67 23.5t66 -23.5t26 -59.5t-26.5 -61t-65.5 -25q-40 0 -67 25t-27 61z" />
<glyph unicode="&#xc0;" d="M36 0v92h133l387 1198h161l387 -1198h132v-92h-430v92h157l-99 323h-477l-99 -323h156v-92h-408zM396 1650h125l225 -298h-101zM411 495h427l-213 696z" />
<glyph unicode="&#xc1;" d="M36 0v92h133l387 1198h161l387 -1198h132v-92h-430v92h157l-99 323h-477l-99 -323h156v-92h-408zM411 495h427l-213 696zM480 1352l225 298h123l-249 -298h-99z" />
<glyph unicode="&#xc2;" d="M36 0v92h133l387 1198h161l387 -1198h132v-92h-430v92h157l-99 323h-477l-99 -323h156v-92h-408zM326 1359l249 298h104l249 -298h-95l-207 226l-206 -226h-94zM411 495h427l-213 696z" />
<glyph unicode="&#xc3;" d="M36 0v92h133l387 1198h161l387 -1198h132v-92h-430v92h157l-99 323h-477l-99 -323h156v-92h-408zM324 1418q0 68 43 116t119 48q62 0 147 -33t125 -33q43 0 67.5 21t24.5 52h66q0 -69 -42.5 -115.5t-112.5 -46.5q-61 0 -147 34t-122 34q-51 0 -76 -22t-25 -55h-67z M411 495h427l-213 696z" />
<glyph unicode="&#xc4;" d="M36 0v92h133l387 1198h161l387 -1198h132v-92h-430v92h157l-99 323h-477l-99 -323h156v-92h-408zM386 1516q0 33 25.5 57t61.5 24q37 0 62.5 -24t25.5 -57t-25.5 -57t-62.5 -24q-36 0 -61.5 24t-25.5 57zM411 495h427l-213 696zM700 1516q0 33 25.5 57t61.5 24t61.5 -24 t25.5 -57t-25.5 -57t-61.5 -24t-61.5 24t-25.5 57z" />
<glyph unicode="&#xc5;" d="M36 0v92h133l387 1198h161l387 -1198h132v-92h-430v92h157l-99 323h-477l-99 -323h156v-92h-408zM411 495h427l-213 696zM437 1529q0 86 56 141t138 55t138.5 -55t56.5 -141q0 -84 -56.5 -139t-138.5 -55t-138 55t-56 139zM512 1529q0 -52 33 -87.5t86 -35.5t86.5 35.5 t33.5 87.5q0 53 -33.5 89t-86.5 36t-86 -35.5t-33 -89.5z" />
<glyph unicode="&#xc6;" horiz-adv-x="1609" d="M22 0v92h133l529 1096h-175v92h1005v-358h-82v122q0 85 -18.5 114.5t-72.5 29.5h-423v-487h353v-81h-353v-528h423q54 0 72.5 30.5t18.5 114.5v144h82v-381h-864v92h138v323h-368l-150 -323h157v-92h-405zM452 485h336v703h-8z" />
<glyph unicode="&#xc7;" horiz-adv-x="1189" d="M108 642q0 186 59 337t176.5 243t274.5 92q268 0 382 -235l12 201h89v-369h-121q-42 139 -127.5 215.5t-209.5 76.5q-123 0 -212 -76t-132 -201t-43 -284q0 -157 47 -284.5t140 -204t216 -76.5q268 0 343 343h128q-32 -213 -152.5 -333.5t-323.5 -120.5l-70 -92 q41 17 85 17q29 0 56.5 -7t54 -22t42.5 -43.5t16 -67.5q0 -78 -61 -115.5t-164 -39.5q-32 0 -65.5 8t-45.5 17v51q52 -13 90 -13q74 0 112 21.5t38 73.5q0 37 -26 58.5t-71 21.5q-37 0 -67 -11t-41 -22l-11 -11l-45 29l113 150q-152 16 -263.5 110t-167 239.5t-55.5 323.5z " />
<glyph unicode="&#xc8;" horiz-adv-x="1082" d="M101 0v92h138v1096h-138v92h862v-358h-81v122q0 85 -18 114.5t-72 29.5h-423v-481h353v-93h-353v-522h423q53 0 71.5 30.5t18.5 114.5v144h81v-381h-862zM312 1650h125l225 -298h-101z" />
<glyph unicode="&#xc9;" horiz-adv-x="1082" d="M101 0v92h138v1096h-138v92h862v-358h-81v122q0 85 -18 114.5t-72 29.5h-423v-481h353v-93h-353v-522h423q53 0 71.5 30.5t18.5 114.5v144h81v-381h-862zM398 1352l225 298h123l-249 -298h-99z" />
<glyph unicode="&#xca;" horiz-adv-x="1082" d="M101 0v92h138v1096h-138v92h862v-358h-81v122q0 85 -18 114.5t-72 29.5h-423v-481h353v-93h-353v-522h423q53 0 71.5 30.5t18.5 114.5v144h81v-381h-862zM271 1359l250 298h104l249 -298h-96l-206 226l-207 -226h-94z" />
<glyph unicode="&#xcb;" horiz-adv-x="1082" d="M101 0v92h138v1096h-138v92h862v-358h-81v122q0 85 -18 114.5t-72 29.5h-423v-481h353v-93h-353v-522h423q53 0 71.5 30.5t18.5 114.5v144h81v-381h-862zM302 1516q0 33 25.5 57t61.5 24q37 0 63 -24t26 -57t-26 -57t-63 -24q-36 0 -61.5 24t-25.5 57zM616 1516 q0 33 25.5 57t61.5 24t61.5 -24t25.5 -57t-25.5 -57t-61.5 -24t-61.5 24t-25.5 57z" />
<glyph unicode="&#xcc;" horiz-adv-x="612" d="M46 1650h125l225 -298h-101zM101 0v92h141v1096h-141v92h411v-92h-140v-1096h140v-92h-411z" />
<glyph unicode="&#xcd;" horiz-adv-x="612" d="M101 0v92h141v1096h-141v92h411v-92h-140v-1096h140v-92h-411zM174 1352l225 298h123l-249 -298h-99z" />
<glyph unicode="&#xce;" horiz-adv-x="612" d="M3 1359l250 298h104l249 -298h-96l-206 226l-207 -226h-94zM101 0v92h141v1096h-141v92h411v-92h-140v-1096h140v-92h-411z" />
<glyph unicode="&#xcf;" horiz-adv-x="612" d="M63 1516q0 33 25.5 57t61.5 24q37 0 63 -24t26 -57t-26 -57t-63 -24q-36 0 -61.5 24t-25.5 57zM101 0v92h141v1096h-141v92h411v-92h-140v-1096h140v-92h-411zM377 1516q0 33 25.5 57t61.5 24t61.5 -24t25.5 -57t-25.5 -57t-61.5 -24t-61.5 24t-25.5 57z" />
<glyph unicode="&#xd0;" horiz-adv-x="1213" d="M80 0v92h138v509h-121v111h121v476h-138v92h502q133 0 237 -48t170 -134.5t100 -202t34 -253.5q0 -140 -34 -256.5t-100 -203t-170 -134.5t-237 -48h-502zM348 92h219q132 0 226 70.5t140.5 193.5t46.5 286q0 247 -107.5 396.5t-305.5 149.5h-219v-476h219v-111h-219 v-509z" />
<glyph unicode="&#xd1;" horiz-adv-x="1332" d="M94 0v92h140v1096h-140v92h252l659 -1053v961h-133v92h374v-92h-137v-1188h-100l-676 1073v-981h136v-92h-375zM362 1418q0 68 43 116t119 48q62 0 146.5 -33t124.5 -33q43 0 67.5 21t24.5 52h67q0 -69 -42.5 -115.5t-112.5 -46.5q-61 0 -147.5 34t-122.5 34 q-51 0 -76 -22t-25 -55h-66z" />
<glyph unicode="&#xd2;" horiz-adv-x="1324" d="M108 642q0 138 36 259t103.5 213.5t174.5 146t240 53.5q132 0 238.5 -53.5t174.5 -146t104 -213.5t36 -259q0 -140 -36 -262t-104 -214.5t-174.5 -146t-238.5 -53.5q-133 0 -240 53.5t-174.5 146t-103.5 214.5t-36 262zM253 642q0 -159 46 -285.5t140 -203t223 -76.5 t222.5 76.5t139.5 203t46 285.5t-46 284.5t-139.5 201t-222.5 75.5t-223 -75.5t-140 -201t-46 -284.5zM435 1650h125l225 -298h-101z" />
<glyph unicode="&#xd3;" horiz-adv-x="1324" d="M108 642q0 138 36 259t103.5 213.5t174.5 146t240 53.5q132 0 238.5 -53.5t174.5 -146t104 -213.5t36 -259q0 -140 -36 -262t-104 -214.5t-174.5 -146t-238.5 -53.5q-133 0 -240 53.5t-174.5 146t-103.5 214.5t-36 262zM253 642q0 -159 46 -285.5t140 -203t223 -76.5 t222.5 76.5t139.5 203t46 285.5t-46 284.5t-139.5 201t-222.5 75.5t-223 -75.5t-140 -201t-46 -284.5zM519 1352l225 298h123l-249 -298h-99z" />
<glyph unicode="&#xd4;" horiz-adv-x="1324" d="M108 642q0 138 36 259t103.5 213.5t174.5 146t240 53.5q132 0 238.5 -53.5t174.5 -146t104 -213.5t36 -259q0 -140 -36 -262t-104 -214.5t-174.5 -146t-238.5 -53.5q-133 0 -240 53.5t-174.5 146t-103.5 214.5t-36 262zM253 642q0 -159 46 -285.5t140 -203t223 -76.5 t222.5 76.5t139.5 203t46 285.5t-46 284.5t-139.5 201t-222.5 75.5t-223 -75.5t-140 -201t-46 -284.5zM360 1359l249 298h104l250 -298h-96l-207 226l-206 -226h-94z" />
<glyph unicode="&#xd5;" horiz-adv-x="1324" d="M108 642q0 138 36 259t103.5 213.5t174.5 146t240 53.5q132 0 238.5 -53.5t174.5 -146t104 -213.5t36 -259q0 -140 -36 -262t-104 -214.5t-174.5 -146t-238.5 -53.5q-133 0 -240 53.5t-174.5 146t-103.5 214.5t-36 262zM253 642q0 -159 46 -285.5t140 -203t223 -76.5 t222.5 76.5t139.5 203t46 285.5t-46 284.5t-139.5 201t-222.5 75.5t-223 -75.5t-140 -201t-46 -284.5zM358 1418q0 68 43.5 116t119.5 48q62 0 146.5 -33t124.5 -33q43 0 67.5 21t24.5 52h67q0 -69 -43 -115.5t-113 -46.5q-61 0 -147 34t-122 34q-51 0 -76 -22t-25 -55h-67z " />
<glyph unicode="&#xd6;" horiz-adv-x="1324" d="M108 642q0 138 36 259t103.5 213.5t174.5 146t240 53.5q132 0 238.5 -53.5t174.5 -146t104 -213.5t36 -259q0 -140 -36 -262t-104 -214.5t-174.5 -146t-238.5 -53.5q-133 0 -240 53.5t-174.5 146t-103.5 214.5t-36 262zM253 642q0 -159 46 -285.5t140 -203t223 -76.5 t222.5 76.5t139.5 203t46 285.5t-46 284.5t-139.5 201t-222.5 75.5t-223 -75.5t-140 -201t-46 -284.5zM425 1516q0 33 25.5 57t61.5 24q37 0 63 -24t26 -57t-26 -57t-63 -24q-36 0 -61.5 24t-25.5 57zM739 1516q0 33 25.5 57t61.5 24t61.5 -24t25.5 -57t-25.5 -57t-61.5 -24 t-61.5 24t-25.5 57z" />
<glyph unicode="&#xd7;" horiz-adv-x="1628" d="M454 236l290 290l-290 290l70 70l290 -290l290 290l70 -70l-290 -290l290 -290l-70 -69l-290 290l-292 -290z" />
<glyph unicode="&#xd8;" horiz-adv-x="1286" d="M90 642q0 138 36 259t103.5 213.5t174 146t239.5 53.5q197 0 335 -116l102 152h94l-140 -207q80 -92 121 -222t41 -279q0 -140 -36 -262t-103.5 -214.5t-174 -146t-239.5 -53.5q-196 0 -331 114l-102 -150h-94l138 205q-80 93 -122 224t-42 283zM234 642q0 -239 99 -393 l573 845q-107 109 -263 109q-129 0 -223 -74.5t-140 -199.5t-46 -287zM382 184q105 -107 261 -107q129 0 223 75.5t140.5 202t46.5 287.5q0 239 -97 387z" />
<glyph unicode="&#xd9;" d="M77 1188v92h401v-92h-132v-809q0 -137 74.5 -224t210.5 -87q140 0 212.5 86t72.5 225v809h-122v92h382v-92h-142v-795q0 -199 -101.5 -313t-301.5 -114q-212 0 -313 113t-101 314v795h-140zM418 1650h125l225 -298h-101z" />
<glyph unicode="&#xda;" d="M77 1188v92h401v-92h-132v-809q0 -137 74.5 -224t210.5 -87q140 0 212.5 86t72.5 225v809h-122v92h382v-92h-142v-795q0 -199 -101.5 -313t-301.5 -114q-212 0 -313 113t-101 314v795h-140zM502 1352l225 298h123l-249 -298h-99z" />
<glyph unicode="&#xdb;" d="M77 1188v92h401v-92h-132v-809q0 -137 74.5 -224t210.5 -87q140 0 212.5 86t72.5 225v809h-122v92h382v-92h-142v-795q0 -199 -101.5 -313t-301.5 -114q-212 0 -313 113t-101 314v795h-140zM352 1359l249 298h104l249 -298h-96l-206 226l-207 -226h-93z" />
<glyph unicode="&#xdc;" d="M77 1188v92h401v-92h-132v-809q0 -137 74.5 -224t210.5 -87q140 0 212.5 86t72.5 225v809h-122v92h382v-92h-142v-795q0 -199 -101.5 -313t-301.5 -114q-212 0 -313 113t-101 314v795h-140zM408 1516q0 33 25.5 57t61.5 24q37 0 63 -24t26 -57t-26 -57t-63 -24 q-36 0 -61.5 24t-25.5 57zM722 1516q0 33 25.5 57t61.5 24t61.5 -24t25.5 -57t-25.5 -57t-61.5 -24t-61.5 24t-25.5 57z" />
<glyph unicode="&#xdd;" horiz-adv-x="1204" d="M36 1188v92h433v-92h-155l300 -567l296 567h-149v92h410v-92h-137l-365 -676v-420h148v-92h-433v92h150v423l-360 673h-138zM461 1352l225 298h123l-249 -298h-99z" />
<glyph unicode="&#xde;" horiz-adv-x="1042" d="M80 0v92h140v1096h-140v92h410v-92h-138v-181h213q196 0 308 -87t112 -265q0 -183 -114 -272t-311 -89h-208v-202h138v-92h-410zM352 369h179q140 0 225 70.5t85 212.5q0 140 -84.5 209t-225.5 69h-179v-561z" />
<glyph unicode="&#xdf;" horiz-adv-x="1058" d="M67 0v89h114v686h-114v89h114v146q0 122 79 206t228 84q144 0 232.5 -68.5t88.5 -183.5q0 -45 -11.5 -81.5t-30 -59.5t-41 -41.5t-45 -33.5t-41.5 -31t-31 -38t-12 -50t19.5 -51t51 -42t70 -39t76.5 -47.5t69.5 -61t51 -86t19.5 -116.5q0 -152 -93.5 -228t-261.5 -76 q-124 0 -191 34v89q52 -33 157 -33q249 0 249 214q0 50 -19 90.5t-49 68t-66 51.5t-72.5 46.5t-66.5 46.5t-49 57.5t-19 74.5q0 34 12 61t31 46t41.5 35.5t45.5 34.5t42 38.5t31 51.5t12 69q0 75 -54 116t-136 41q-86 0 -140 -50t-54 -131v-1017h-237z" />
<glyph unicode="&#xe0;" horiz-adv-x="989" d="M84 222q0 130 100 200t294 70h206v71q0 237 -218 237q-105 0 -165 -52t-62 -137v-15h-121v18q0 127 93.5 204.5t261.5 77.5q172 0 253 -82.5t81 -245.5v-479h116v-92h-239v109q-46 -57 -125.5 -98.5t-183.5 -41.5q-135 0 -213 66t-78 190zM212 234q0 -83 56.5 -130.5 t156.5 -47.5q55 0 102 16t77.5 42t49 50.5t30.5 50.5v207h-182q-290 0 -290 -188zM259 1280h115l225 -300h-90z" />
<glyph unicode="&#xe1;" horiz-adv-x="989" d="M84 222q0 130 100 200t294 70h206v71q0 237 -218 237q-105 0 -165 -52t-62 -137v-15h-121v18q0 127 93.5 204.5t261.5 77.5q172 0 253 -82.5t81 -245.5v-479h116v-92h-239v109q-46 -57 -125.5 -98.5t-183.5 -41.5q-135 0 -213 66t-78 190zM212 234q0 -83 56.5 -130.5 t156.5 -47.5q55 0 102 16t77.5 42t49 50.5t30.5 50.5v207h-182q-290 0 -290 -188zM345 980l225 300h114l-249 -300h-90z" />
<glyph unicode="&#xe2;" horiz-adv-x="989" d="M84 222q0 130 100 200t294 70h206v71q0 237 -218 237q-105 0 -165 -52t-62 -137v-15h-121v18q0 127 93.5 204.5t261.5 77.5q172 0 253 -82.5t81 -245.5v-479h116v-92h-239v109q-46 -57 -125.5 -98.5t-183.5 -41.5q-135 0 -213 66t-78 190zM191 976l249 299h86l249 -299 h-86l-206 225l-207 -225h-85zM212 234q0 -83 56.5 -130.5t156.5 -47.5q55 0 102 16t77.5 42t49 50.5t30.5 50.5v207h-182q-290 0 -290 -188z" />
<glyph unicode="&#xe3;" horiz-adv-x="989" d="M84 222q0 130 100 200t294 70h206v71q0 237 -218 237q-105 0 -165 -52t-62 -137v-15h-121v18q0 127 93.5 204.5t261.5 77.5q172 0 253 -82.5t81 -245.5v-479h116v-92h-239v109q-46 -57 -125.5 -98.5t-183.5 -41.5q-135 0 -213 66t-78 190zM191 1048q0 65 42 111t115 46 q60 0 142 -33.5t121 -33.5q41 0 65.5 21.5t24.5 50.5h64q0 -64 -42 -109t-109 -45q-60 0 -143 34.5t-119 34.5q-49 0 -73.5 -22.5t-24.5 -54.5h-63zM212 234q0 -83 56.5 -130.5t156.5 -47.5q55 0 102 16t77.5 42t49 50.5t30.5 50.5v207h-182q-290 0 -290 -188z" />
<glyph unicode="&#xe4;" horiz-adv-x="989" d="M84 222q0 130 100 200t294 70h206v71q0 237 -218 237q-105 0 -165 -52t-62 -137v-15h-121v18q0 127 93.5 204.5t261.5 77.5q172 0 253 -82.5t81 -245.5v-479h116v-92h-239v109q-46 -57 -125.5 -98.5t-183.5 -41.5q-135 0 -213 66t-78 190zM212 234q0 -83 56.5 -130.5 t156.5 -47.5q55 0 102 16t77.5 42t49 50.5t30.5 50.5v207h-182q-290 0 -290 -188zM268 1133q0 31 23.5 53t56.5 22t56 -22t23 -53q0 -30 -23 -51.5t-56 -21.5t-56.5 22t-23.5 51zM560 1133q0 31 23 53t57 22q33 0 56 -22t23 -53q0 -30 -23 -51.5t-56 -21.5q-34 0 -57 21.5 t-23 51.5z" />
<glyph unicode="&#xe5;" horiz-adv-x="989" d="M84 222q0 130 100 200t294 70h206v71q0 237 -218 237q-105 0 -165 -52t-62 -137v-15h-121v18q0 127 93.5 204.5t261.5 77.5q172 0 253 -82.5t81 -245.5v-479h116v-92h-239v109q-46 -57 -125.5 -98.5t-183.5 -41.5q-135 0 -213 66t-78 190zM212 234q0 -83 56.5 -130.5 t156.5 -47.5q55 0 102 16t77.5 42t49 50.5t30.5 50.5v207h-182q-290 0 -290 -188zM294 1164q0 85 55 140t137 55t137.5 -55t55.5 -140q0 -82 -56.5 -137.5t-136.5 -55.5t-136 55.5t-56 137.5zM367 1164q0 -52 33 -87.5t86 -35.5t86.5 36t33.5 87q0 53 -33.5 88t-86.5 35 t-86 -35t-33 -88z" />
<glyph unicode="&#xe6;" horiz-adv-x="1616" d="M84 215q0 127 98 190.5t272 63.5h256v75q0 268 -225 268q-107 0 -176.5 -60.5t-69.5 -152.5v-15h-121v17q0 134 101.5 215.5t272.5 81.5q236 0 307 -168q58 80 143 124t190 44q188 0 302 -129t114 -330v-28h-715q7 -155 90 -253t205 -98q101 0 177 60.5t103 164.5h130 q-33 -147 -142 -233t-264 -86q-126 0 -222.5 61.5t-148.5 168.5q-28 -84 -122 -157t-221 -73q-334 0 -334 249zM212 227q0 -85 62.5 -128t181.5 -43q100 0 177 73t77 153v129h-236q-126 0 -194 -47.5t-68 -136.5zM835 473h587q-9 149 -92 242.5t-202 93.5q-121 0 -202.5 -93 t-90.5 -243z" />
<glyph unicode="&#xe7;" horiz-adv-x="965" d="M77 432q0 201 117.5 333.5t305.5 132.5q160 0 266 -92.5t130 -244.5h-128q-26 108 -99.5 174.5t-170.5 66.5q-124 0 -207 -107t-83 -263t83.5 -264t206.5 -108q99 0 173 68t97 179h130q-24 -150 -125.5 -243t-255.5 -98l-58 -97q43 23 97 23q28 0 55 -6.5t53 -21 t42 -42.5t16 -66q0 -77 -59.5 -114.5t-160.5 -39.5q-32 0 -64.5 8t-44.5 18v49q52 -13 90 -13q73 0 110 21.5t37 73.5q0 36 -25.5 57.5t-70.5 21.5q-36 0 -65.5 -11t-40.5 -23l-12 -11l-42 30l83 145q-171 15 -275.5 145t-104.5 319z" />
<glyph unicode="&#xe8;" horiz-adv-x="991" d="M77 432q0 201 120.5 333.5t309.5 132.5q188 0 302 -129t114 -330v-40h-713q11 -149 92.5 -244t200.5 -95q99 0 176 62.5t104 164.5h130q-33 -147 -142 -234t-264 -87q-189 0 -309.5 132.5t-120.5 333.5zM210 481h585q-11 142 -94 235t-198 93q-119 0 -200.5 -92 t-92.5 -236zM278 1280h115l225 -300h-91z" />
<glyph unicode="&#xe9;" horiz-adv-x="991" d="M77 432q0 201 120.5 333.5t309.5 132.5q188 0 302 -129t114 -330v-40h-713q11 -149 92.5 -244t200.5 -95q99 0 176 62.5t104 164.5h130q-33 -147 -142 -234t-264 -87q-189 0 -309.5 132.5t-120.5 333.5zM210 481h585q-11 142 -94 235t-198 93q-119 0 -200.5 -92 t-92.5 -236zM364 980l225 300h114l-249 -300h-90z" />
<glyph unicode="&#xea;" horiz-adv-x="991" d="M77 432q0 201 120.5 333.5t309.5 132.5q188 0 302 -129t114 -330v-40h-713q11 -149 92.5 -244t200.5 -95q99 0 176 62.5t104 164.5h130q-33 -147 -142 -234t-264 -87q-189 0 -309.5 132.5t-120.5 333.5zM210 481h585q-11 142 -94 235t-198 93q-119 0 -200.5 -92 t-92.5 -236zM212 976l249 299h85l249 -299h-85l-207 225l-206 -225h-85z" />
<glyph unicode="&#xeb;" horiz-adv-x="991" d="M77 432q0 201 120.5 333.5t309.5 132.5q188 0 302 -129t114 -330v-40h-713q11 -149 92.5 -244t200.5 -95q99 0 176 62.5t104 164.5h130q-33 -147 -142 -234t-264 -87q-189 0 -309.5 132.5t-120.5 333.5zM210 481h585q-11 142 -94 235t-198 93q-119 0 -200.5 -92 t-92.5 -236zM285 1133q0 31 23.5 53t56.5 22t56 -22t23 -53q0 -30 -23 -51.5t-56 -21.5t-56.5 22t-23.5 51zM577 1133q0 31 23 53t57 22q33 0 56 -22t23 -53q0 -30 -23 -51.5t-56 -21.5q-34 0 -57 21.5t-23 51.5z" />
<glyph unicode="&#xec;" horiz-adv-x="486" d="M19 1280h114l225 -300h-90zM67 0v89h114v686h-114v89h237v-775h116v-89h-353z" />
<glyph unicode="&#xed;" horiz-adv-x="486" d="M67 0v89h114v686h-114v89h237v-775h116v-89h-353zM102 980l226 300h114l-249 -300h-91z" />
<glyph unicode="&#xee;" horiz-adv-x="486" d="M-48 976l249 299h86l249 -299h-85l-207 225l-206 -225h-86zM67 0v89h114v686h-114v89h237v-775h116v-89h-353z" />
<glyph unicode="&#xef;" horiz-adv-x="486" d="M15 1133q0 31 24 53t57 22t55.5 -22t22.5 -53q0 -30 -22.5 -51.5t-55.5 -21.5t-57 22t-24 51zM67 0v89h114v686h-114v89h237v-775h116v-89h-353zM307 1133q0 31 23 53t57 22q33 0 56 -22t23 -53q0 -30 -23 -51.5t-56 -21.5q-34 0 -57 21.5t-23 51.5z" />
<glyph unicode="&#xf0;" horiz-adv-x="1006" d="M77 432q0 203 120.5 334.5t305.5 131.5q123 0 233 -72q-62 145 -171 263l-159 -123v78l115 89q-63 61 -161 130l75 61q113 -80 166 -128l143 111v-76l-97 -77q283 -283 283 -705q0 -214 -119.5 -348.5t-307.5 -134.5q-185 0 -305.5 131.5t-120.5 334.5zM208 432 q0 -163 84 -267.5t211 -104.5q128 0 212.5 103.5t84.5 268.5q0 164 -84.5 267t-212.5 103q-127 0 -211 -103t-84 -267z" />
<glyph unicode="&#xf1;" horiz-adv-x="1054" d="M67 0v89h114v686h-114v89h237v-122q41 73 119 114.5t169 41.5q127 0 204.5 -82t77.5 -215v-512h114v-89h-341v89h104v474q0 115 -53 179t-148 64q-106 0 -176 -69t-70 -174v-474h106v-89h-343zM227 1048q0 65 42 111t115 46q60 0 142 -33.5t121 -33.5q41 0 65.5 21.5 t24.5 50.5h63q0 -64 -41.5 -109t-108.5 -45q-60 0 -144 34.5t-119 34.5q-49 0 -73 -22.5t-24 -54.5h-63z" />
<glyph unicode="&#xf2;" horiz-adv-x="1006" d="M77 432q0 203 120.5 334.5t305.5 131.5q186 0 306.5 -131.5t120.5 -334.5t-120.5 -334.5t-306.5 -131.5q-185 0 -305.5 131.5t-120.5 334.5zM208 432q0 -160 84.5 -266t210.5 -106q127 0 212 105t85 267t-84.5 266t-212.5 104q-126 0 -210.5 -104.5t-84.5 -265.5z M278 1280h115l225 -300h-91z" />
<glyph unicode="&#xf3;" horiz-adv-x="1006" d="M77 432q0 203 120.5 334.5t305.5 131.5q186 0 306.5 -131.5t120.5 -334.5t-120.5 -334.5t-306.5 -131.5q-185 0 -305.5 131.5t-120.5 334.5zM208 432q0 -160 84.5 -266t210.5 -106q127 0 212 105t85 267t-84.5 266t-212.5 104q-126 0 -210.5 -104.5t-84.5 -265.5z M389 980l225 300h115l-249 -300h-91z" />
<glyph unicode="&#xf4;" horiz-adv-x="1006" d="M77 432q0 203 120.5 334.5t305.5 131.5q186 0 306.5 -131.5t120.5 -334.5t-120.5 -334.5t-306.5 -131.5q-185 0 -305.5 131.5t-120.5 334.5zM208 432q0 -160 84.5 -266t210.5 -106q127 0 212 105t85 267t-84.5 266t-212.5 104q-126 0 -210.5 -104.5t-84.5 -265.5z M212 976l249 299h85l249 -299h-85l-207 225l-206 -225h-85z" />
<glyph unicode="&#xf5;" horiz-adv-x="1006" d="M77 432q0 203 120.5 334.5t305.5 131.5q186 0 306.5 -131.5t120.5 -334.5t-120.5 -334.5t-306.5 -131.5q-185 0 -305.5 131.5t-120.5 334.5zM208 432q0 -160 84.5 -266t210.5 -106q127 0 212 105t85 267t-84.5 266t-212.5 104q-126 0 -210.5 -104.5t-84.5 -265.5z M210 1048q0 65 42 111t115 46q60 0 142 -33.5t121 -33.5q41 0 65.5 21.5t24.5 50.5h63q0 -64 -41.5 -109t-108.5 -45q-59 0 -143 34.5t-120 34.5q-49 0 -73 -22.5t-24 -54.5h-63z" />
<glyph unicode="&#xf6;" horiz-adv-x="1006" d="M77 432q0 203 120.5 334.5t305.5 131.5q186 0 306.5 -131.5t120.5 -334.5t-120.5 -334.5t-306.5 -131.5q-185 0 -305.5 131.5t-120.5 334.5zM208 432q0 -160 84.5 -266t210.5 -106q127 0 212 105t85 267t-84.5 266t-212.5 104q-126 0 -210.5 -104.5t-84.5 -265.5z M287 1133q0 31 23.5 53t56.5 22t55.5 -22t22.5 -53q0 -30 -22.5 -51.5t-55.5 -21.5t-56.5 22t-23.5 51zM579 1133q0 31 23 53t57 22q33 0 55.5 -22t22.5 -53q0 -30 -22.5 -51.5t-55.5 -21.5q-34 0 -57 21.5t-23 51.5z" />
<glyph unicode="&#xf7;" horiz-adv-x="1766" d="M454 476v99h858v-99h-858zM797 242q0 33 24.5 56t60.5 23q38 0 62.5 -23t24.5 -56t-24.5 -55.5t-62.5 -22.5q-37 0 -61 22.5t-24 55.5zM797 809q0 33 24 55.5t61 22.5q38 0 62.5 -22.5t24.5 -55.5t-24.5 -55t-62.5 -22q-37 0 -61 22t-24 55z" />
<glyph unicode="&#xf8;" horiz-adv-x="1006" d="M77 432q0 203 120.5 334.5t305.5 131.5q128 0 229 -67l67 103h54l-83 -128q76 -64 118 -160.5t42 -213.5q0 -203 -120.5 -334.5t-306.5 -131.5q-130 0 -233 70l-69 -104h-56l87 133q-74 62 -114.5 157.5t-40.5 209.5zM208 432q0 -166 87 -272l379 582q-76 60 -171 60 q-127 0 -211 -103t-84 -267zM328 126q75 -66 175 -66q128 0 212.5 103.5t84.5 268.5q0 168 -92 278z" />
<glyph unicode="&#xf9;" horiz-adv-x="1003" d="M20 775v89h236v-564q0 -114 53.5 -179t149.5 -65q106 0 175 69.5t69 174.5v475h-111v89h234v-775h116v-89h-239v108q-44 -66 -122.5 -104t-164.5 -38q-130 0 -206.5 83.5t-76.5 213.5v512h-113zM241 1280h114l225 -300h-90z" />
<glyph unicode="&#xfa;" horiz-adv-x="1003" d="M20 775v89h236v-564q0 -114 53.5 -179t149.5 -65q106 0 175 69.5t69 174.5v475h-111v89h234v-775h116v-89h-239v108q-44 -66 -122.5 -104t-164.5 -38q-130 0 -206.5 83.5t-76.5 213.5v512h-113zM326 980l225 300h115l-250 -300h-90z" />
<glyph unicode="&#xfb;" horiz-adv-x="1003" d="M20 775v89h236v-564q0 -114 53.5 -179t149.5 -65q106 0 175 69.5t69 174.5v475h-111v89h234v-775h116v-89h-239v108q-44 -66 -122.5 -104t-164.5 -38q-130 0 -206.5 83.5t-76.5 213.5v512h-113zM174 976l249 299h86l249 -299h-86l-206 225l-207 -225h-85z" />
<glyph unicode="&#xfc;" horiz-adv-x="1003" d="M20 775v89h236v-564q0 -114 53.5 -179t149.5 -65q106 0 175 69.5t69 174.5v475h-111v89h234v-775h116v-89h-239v108q-44 -66 -122.5 -104t-164.5 -38q-130 0 -206.5 83.5t-76.5 213.5v512h-113zM249 1133q0 31 23.5 53t56.5 22t56 -22t23 -53q0 -30 -23 -51.5t-56 -21.5 t-56.5 22t-23.5 51zM541 1133q0 31 23 53t57 22q33 0 56 -22t23 -53q0 -30 -23 -51.5t-56 -21.5q-34 0 -57 21.5t-23 51.5z" />
<glyph unicode="&#xfd;" horiz-adv-x="952" d="M20 775v89h347v-89h-109l234 -661l237 661h-115v89h325v-89h-110l-341 -930q-36 -98 -92 -148t-142 -50q-33 0 -83 10l5 92q45 -5 73 -5q56 0 89 23.5t51 73.5l46 130l-302 804h-113zM329 980l226 300h114l-249 -300h-91z" />
<glyph unicode="&#xfe;" horiz-adv-x="1066" d="M67 -241h116v1431h-116v88h238v-525q41 63 119.5 104t169.5 41q166 0 280 -130t114 -331t-115 -332t-279 -131q-91 0 -169.5 41t-119.5 104v-360h120v-83h-358v83zM305 317q0 -103 74.5 -174t181.5 -71q125 0 211 105.5t86 259.5t-86 258.5t-211 104.5 q-107 0 -181.5 -71.5t-74.5 -172.5v-239z" />
<glyph unicode="&#xff;" horiz-adv-x="952" d="M20 775v89h347v-89h-109l234 -661l237 661h-115v89h325v-89h-110l-341 -930q-36 -98 -92 -148t-142 -50q-33 0 -83 10l5 92q45 -5 73 -5q56 0 89 23.5t51 73.5l46 130l-302 804h-113zM259 1133q0 31 24 53t57 22t55.5 -22t22.5 -53q0 -30 -22.5 -51.5t-55.5 -21.5t-57 22 t-24 51zM551 1133q0 31 23 53t57 22q33 0 56 -22t23 -53q0 -30 -23 -51.5t-56 -21.5q-34 0 -57 21.5t-23 51.5z" />
<glyph unicode="&#x152;" horiz-adv-x="1553" d="M90 642q0 133 36 248t103.5 202.5t174 137.5t239.5 50h814v-358h-80v122q0 85 -18 114.5t-72 29.5h-423v-487h353v-81h-353v-528h423q53 0 71.5 30.5t18.5 114.5v144h80v-381h-814q-133 0 -239.5 50t-174 137.5t-103.5 203.5t-36 251zM234 642q0 -156 46.5 -279 t141.5 -197t225 -74h87v1096h-87q-130 0 -225 -72.5t-141.5 -194.5t-46.5 -279z" />
<glyph unicode="&#x153;" horiz-adv-x="1720" d="M77 432q0 203 120.5 334.5t305.5 131.5q126 0 222.5 -66.5t144.5 -179.5q49 113 144 179.5t223 66.5q188 0 300.5 -128.5t112.5 -330.5v-24h-716q7 -157 89.5 -256t207.5 -99q99 0 175 61.5t103 165.5h131q-35 -148 -143.5 -234.5t-264.5 -86.5q-126 0 -220.5 66.5 t-141.5 177.5q-50 -112 -145.5 -178t-221.5 -66q-185 0 -305.5 131.5t-120.5 334.5zM208 432q0 -163 84 -267.5t211 -104.5q128 0 212.5 103.5t84.5 268.5q0 164 -84.5 267t-212.5 103q-127 0 -211 -103t-84 -267zM935 476h586q-9 146 -91.5 239.5t-200.5 93.5 q-120 0 -202 -92.5t-92 -240.5z" />
<glyph unicode="&#x178;" horiz-adv-x="1204" d="M36 1188v92h433v-92h-155l300 -567l296 567h-149v92h410v-92h-137l-365 -676v-420h148v-92h-433v92h150v423l-360 673h-138zM365 1516q0 33 25.5 57t61.5 24q37 0 63 -24t26 -57t-26 -57t-63 -24q-36 0 -61.5 24t-25.5 57zM679 1516q0 33 25.5 57t61.5 24t61.5 -24 t25.5 -57t-25.5 -57t-61.5 -24t-61.5 24t-25.5 57z" />
<glyph unicode="&#x2c6;" horiz-adv-x="583" d="M0 976l249 299h86l249 -299h-86l-206 225l-207 -225h-85z" />
<glyph unicode="&#x2dc;" horiz-adv-x="573" d="M0 1108q0 65 42 111t115 46q60 0 142 -33.5t121 -33.5q41 0 65.5 21.5t24.5 50.5h63q0 -64 -41.5 -109t-108.5 -45q-59 0 -143 34t-120 34q-49 0 -73 -22t-24 -54h-63z" />
<glyph unicode="&#x2000;" horiz-adv-x="862" />
<glyph unicode="&#x2001;" horiz-adv-x="1725" />
<glyph unicode="&#x2002;" horiz-adv-x="862" />
<glyph unicode="&#x2003;" horiz-adv-x="1725" />
<glyph unicode="&#x2004;" horiz-adv-x="575" />
<glyph unicode="&#x2005;" horiz-adv-x="431" />
<glyph unicode="&#x2006;" horiz-adv-x="287" />
<glyph unicode="&#x2007;" horiz-adv-x="287" />
<glyph unicode="&#x2008;" horiz-adv-x="215" />
<glyph unicode="&#x2009;" horiz-adv-x="345" />
<glyph unicode="&#x200a;" horiz-adv-x="95" />
<glyph unicode="&#x2010;" horiz-adv-x="873" d="M101 418v99h670v-99h-670z" />
<glyph unicode="&#x2011;" horiz-adv-x="873" d="M101 418v99h670v-99h-670z" />
<glyph unicode="&#x2012;" horiz-adv-x="873" d="M101 418v99h670v-99h-670z" />
<glyph unicode="&#x2013;" horiz-adv-x="1059" d="M101 418v99h858v-99h-858z" />
<glyph unicode="&#x2014;" horiz-adv-x="1624" d="M101 418v99h1423v-99h-1423z" />
<glyph unicode="&#x2018;" horiz-adv-x="494" d="M143 1048q0 150 159 266l34 -31q-27 -25 -41 -40.5t-34 -52t-27 -77.5q42 0 68 -25.5t26 -60.5q0 -36 -25.5 -59.5t-65.5 -23.5q-42 0 -68 27t-26 77z" />
<glyph unicode="&#x2019;" horiz-adv-x="494" d="M157 973q27 26 41 41t34.5 51.5t26.5 77.5q-42 1 -67.5 26.5t-25.5 59.5q0 36 26 60.5t66 24.5q41 0 66.5 -28t25.5 -78q0 -75 -42.5 -144t-114.5 -122z" />
<glyph unicode="&#x201a;" horiz-adv-x="494" d="M157 -207q29 29 41 42t33 50.5t28 78.5q-42 1 -67.5 26t-25.5 59q0 36 26.5 61t65.5 25q41 0 66.5 -28t25.5 -78q0 -75 -42.5 -144t-114.5 -122z" />
<glyph unicode="&#x201c;" horiz-adv-x="766" d="M143 1048q0 150 159 266l34 -31q-27 -25 -41 -40.5t-34 -52t-27 -77.5q42 0 68 -25.5t26 -60.5q0 -36 -25.5 -59.5t-65.5 -23.5q-42 0 -68 27t-26 77zM416 1048q0 150 159 266l34 -31q-27 -25 -41 -40.5t-34 -52t-27 -77.5q42 0 68 -25.5t26 -60.5q0 -36 -26 -59.5 t-66 -23.5q-41 0 -67 27.5t-26 76.5z" />
<glyph unicode="&#x201d;" horiz-adv-x="766" d="M157 973q27 26 41 41t34.5 51.5t26.5 77.5q-42 1 -67.5 26.5t-25.5 59.5q0 36 26 60.5t66 24.5q41 0 66.5 -28t25.5 -78q0 -75 -42.5 -144t-114.5 -122zM430 973q26 25 40.5 40.5t34.5 52t27 77.5q-42 1 -67.5 26.5t-25.5 59.5q0 36 26 60.5t66 24.5q41 0 66.5 -28 t25.5 -78q0 -75 -42.5 -144t-114.5 -122z" />
<glyph unicode="&#x201e;" horiz-adv-x="663" d="M106 -207q29 29 41 42t33 50.5t28 78.5q-42 1 -68 26t-26 59q0 36 26.5 61t66.5 25q41 0 66.5 -28t25.5 -78q0 -75 -42.5 -144t-114.5 -122zM377 -207q27 26 41.5 41t35 52t26.5 78q-42 1 -68 26t-26 59q0 36 26.5 61t65.5 25q41 0 67.5 -28t26.5 -78q0 -75 -43 -143.5 t-116 -122.5z" />
<glyph unicode="&#x2022;" horiz-adv-x="479" d="M101 640q0 53 39.5 89.5t98.5 36.5q60 0 100 -36.5t40 -89.5q0 -54 -40 -91t-100 -37q-59 0 -98.5 37t-39.5 91z" />
<glyph unicode="&#x2026;" horiz-adv-x="882" d="M92 49q0 36 26.5 61t67.5 25q39 0 65.5 -25t26.5 -61q0 -35 -26.5 -59t-65.5 -24q-41 0 -67.5 24t-26.5 59zM348 49q0 36 26.5 61t65.5 25q40 0 67 -25t27 -61q0 -35 -27 -59t-67 -24q-39 0 -65.5 24t-26.5 59zM604 49q0 36 26.5 61t65.5 25q40 0 67 -25t27 -61 q0 -35 -27 -59t-67 -24q-39 0 -65.5 24t-26.5 59z" />
<glyph unicode="&#x202f;" horiz-adv-x="345" />
<glyph unicode="&#x2039;" horiz-adv-x="599" d="M108 432l261 362h123l-262 -362l262 -362h-123z" />
<glyph unicode="&#x203a;" horiz-adv-x="599" d="M108 70l261 362l-261 362h122l262 -362l-262 -362h-122z" />
<glyph unicode="&#x205f;" horiz-adv-x="431" />
<glyph unicode="&#x20ac;" horiz-adv-x="1315" d="M108 488v70h85q-4 54 -4 84q0 29 4 83h-85v70h93q23 151 87 266t175.5 184t256.5 69q192 0 308.5 -108t157.5 -301h-124q-97 298 -335 298q-154 0 -251.5 -111.5t-127.5 -296.5h418v-70h-426q-4 -54 -4 -83q0 -30 4 -84h426v-70h-418q30 -186 128 -298.5t251 -112.5 q256 0 345 343h126q-38 -215 -156.5 -334.5t-321.5 -119.5q-216 0 -351 144t-169 378h-92z" />
<glyph unicode="&#x2122;" horiz-adv-x="1266" d="M92 1140v140h389v-140h-39v38q0 37 -8.5 50t-27.5 13h-83v-384h56v-45h-183v45h57v384h-86q-19 0 -26.5 -13t-7.5 -50v-38h-41zM556 812v45h55v379h-55v44h147l166 -375l165 375h138v-44h-54v-379h54v-45h-170v45h46v346l-178 -392h-29l-172 387v-341h44v-45h-157z" />
<glyph unicode="&#x25fc;" horiz-adv-x="861" d="M0 0v862h862v-862h-862z" />
<glyph unicode="&#xfb01;" horiz-adv-x="1008" d="M67 0v89h114v686h-114v89h114v268q0 85 50.5 126t155.5 41q59 0 94 -16v-83q-23 7 -54 7q-63 0 -93 -24.5t-30 -78.5v-240h148v-89h-148v-686h148v-89h-385zM589 0v89h116v686h-116v89h239v-775h116v-89h-355zM650 1159q0 37 26 60t70 23t69.5 -23t25.5 -60 q0 -36 -25.5 -59t-69.5 -23t-70 23.5t-26 58.5z" />
<glyph unicode="&#xfb02;" horiz-adv-x="1008" d="M67 0v89h114v686h-114v89h114v268q0 85 50.5 126t155.5 41q59 0 94 -16v-83q-23 7 -54 7q-63 0 -93 -24.5t-30 -78.5v-240h148v-89h-148v-686h148v-89h-385zM589 0v89h116v1102h-116v89h239v-1191h116v-89h-355z" />
</font>
</defs>
</svg>
